<?xml version="1.0" encoding="UTF-8"?>
<svg width="256px" height="256px" viewBox="0 0 256 256" version="1.1" xmlns="http://www.w3.org/2000/svg" xmlns:xlink="http://www.w3.org/1999/xlink">
    <!-- Generator: Sketch 47.1 (45422) - http://www.bohemiancoding.com/sketch -->
    <title>Group</title>
    <desc>Created with Sketch.</desc>
    <defs></defs>
    <g id="Page-1" stroke="none" stroke-width="1" fill="none" fill-rule="evenodd">
        <g id="Icon">
            <g id="Group">
                <rect id="Rectangle" fill="#000000" x="0" y="0" width="256" height="256"></rect>
                <polygon id="Combined-Shape" stroke="#FFFFFF" stroke-width="3" transform="translate(138.305014, 163.397425) scale(-1, 1) translate(-138.305014, -163.397425) " points="183.302504 160.810135 178.528145 143.304153 189.21642 132.615878 189.878088 135.147476 195.969693 158.456009 197.812647 164.906349 197.144772 165.532482 192.935646 169.477469 144.429975 217.982037 139.825209 222.893787 138.944955 222.642286 133.405211 221.059159 98.0976615 211.767357 91.7263061 209.94697 91.4973718 209.1457 89.897593 203.545273 80.6224431 168.298406 78.797381 161.910689 79.3789702 161.290328 83.3941423 157.008818 132.195807 108.472388 136.767131 103.901064 137.58253 104.095207 143.199861 105.433481 169.034864 112.479391 158.371809 123.142445 140.600584 118.368086 93.2882791 165.680391 102.385615 199.289995 135.728996 208.383644"></polygon>
                <polygon id="Combined-Shape" stroke="#FFFFFF" stroke-width="3" fill="#FFFFFF" fill-rule="nonzero" transform="translate(118.686040, 92.822792) scale(-1, 1) translate(-118.686040, -92.822792) " points="174.917379 88.3136752 165.633903 53.0364672 164.04245 47.4663818 158.472365 45.8749288 123.195157 36.591453 117.625071 35 113.646439 39.2438746 65.1071226 87.7831909 60.863248 91.7618234 62.454701 97.3319088 68.5552708 120.673219 76.7777779 112.450712 72.0034189 94.9447293 120.807977 46.1401709 155.819943 55.6888889 165.368661 90.9660969 116.829345 139.505413 116.829345 139.505413 99.0581198 134.731054 90.8356126 142.953561 114.176923 149.319373 119.747009 150.645584 123.725641 146.666952 172.530199 98.1276353 176.508832 93.8837607"></polygon>
            </g>
        </g>
    </g>
</svg>